<svg width="24" height="25" viewBox="0 0 24 25" fill="none" xmlns="http://www.w3.org/2000/svg">
<path d="M21.6488 20.155C20.2209 17.6866 18.0206 15.9166 15.4528 15.0775C16.723 14.3214 17.7098 13.1692 18.2618 11.7979C18.8137 10.4267 18.9003 8.91213 18.5082 7.4869C18.1161 6.06167 17.267 4.80456 16.0912 3.90862C14.9155 3.01268 13.4782 2.52745 12 2.52745C10.5218 2.52745 9.08451 3.01268 7.90878 3.90862C6.73306 4.80456 5.88394 6.06167 5.49183 7.4869C5.09971 8.91213 5.18629 10.4267 5.73825 11.7979C6.29021 13.1692 7.27704 14.3214 8.5472 15.0775C5.97938 15.9156 3.77907 17.6856 2.35126 20.155C2.2989 20.2404 2.26417 20.3354 2.24912 20.4344C2.23407 20.5334 2.239 20.6344 2.26363 20.7315C2.28825 20.8286 2.33207 20.9198 2.3925 20.9996C2.45293 21.0795 2.52874 21.1465 2.61547 21.1965C2.7022 21.2466 2.79808 21.2789 2.89745 21.2913C2.99683 21.3037 3.0977 21.2961 3.19409 21.269C3.29049 21.2418 3.38047 21.1956 3.45872 21.1331C3.53697 21.0706 3.6019 20.993 3.6497 20.905C5.41595 17.8525 8.53782 16.03 12 16.03C15.4622 16.03 18.5841 17.8525 20.3503 20.905C20.3981 20.993 20.4631 21.0706 20.5413 21.1331C20.6196 21.1956 20.7095 21.2418 20.8059 21.269C20.9023 21.2961 21.0032 21.3037 21.1026 21.2913C21.2019 21.2789 21.2978 21.2466 21.3845 21.1965C21.4713 21.1465 21.5471 21.0795 21.6075 20.9996C21.6679 20.9198 21.7118 20.8286 21.7364 20.7315C21.761 20.6344 21.766 20.5334 21.7509 20.4344C21.7358 20.3354 21.7011 20.2404 21.6488 20.155ZM6.75001 9.28C6.75001 8.24165 7.05792 7.22662 7.63479 6.36326C8.21167 5.4999 9.03161 4.82699 9.99092 4.42963C10.9502 4.03227 12.0058 3.92831 13.0242 4.13088C14.0426 4.33345 14.9781 4.83346 15.7123 5.56769C16.4465 6.30192 16.9466 7.23738 17.1491 8.25578C17.3517 9.27418 17.2477 10.3298 16.8504 11.2891C16.453 12.2484 15.7801 13.0683 14.9168 13.6452C14.0534 14.2221 13.0384 14.53 12 14.53C10.6081 14.5285 9.27359 13.9749 8.28934 12.9907C7.3051 12.0064 6.7515 10.6719 6.75001 9.28Z" fill="white"/>
</svg>
