<svg width="24" height="25" viewBox="0 0 24 25" fill="none" xmlns="http://www.w3.org/2000/svg">
<path d="M20.25 5.53H16.5V4.78C16.5 4.18326 16.2629 3.61097 15.841 3.18901C15.419 2.76705 14.8467 2.53 14.25 2.53H9.75C9.15326 2.53 8.58097 2.76705 8.15901 3.18901C7.73705 3.61097 7.5 4.18326 7.5 4.78V5.53H3.75C3.35218 5.53 2.97064 5.68803 2.68934 5.96934C2.40804 6.25064 2.25 6.63217 2.25 7.03V19.03C2.25 19.4278 2.40804 19.8094 2.68934 20.0907C2.97064 20.372 3.35218 20.53 3.75 20.53H20.25C20.6478 20.53 21.0294 20.372 21.3107 20.0907C21.592 19.8094 21.75 19.4278 21.75 19.03V7.03C21.75 6.63217 21.592 6.25064 21.3107 5.96934C21.0294 5.68803 20.6478 5.53 20.25 5.53ZM9 4.78C9 4.58109 9.07902 4.39032 9.21967 4.24967C9.36032 4.10902 9.55109 4.03 9.75 4.03H14.25C14.4489 4.03 14.6397 4.10902 14.7803 4.24967C14.921 4.39032 15 4.58109 15 4.78V5.53H9V4.78ZM20.25 7.03V10.9309C17.7185 12.3089 14.8822 13.0305 12 13.03C9.11794 13.0305 6.28165 12.3092 3.75 10.9319V7.03H20.25ZM20.25 19.03H3.75V12.6212C6.31868 13.8777 9.1405 14.5306 12 14.53C14.8596 14.5301 17.6813 13.8769 20.25 12.6203V19.03ZM9.75 10.78C9.75 10.5811 9.82902 10.3903 9.96967 10.2497C10.1103 10.109 10.3011 10.03 10.5 10.03H13.5C13.6989 10.03 13.8897 10.109 14.0303 10.2497C14.171 10.3903 14.25 10.5811 14.25 10.78C14.25 10.9789 14.171 11.1697 14.0303 11.3103C13.8897 11.451 13.6989 11.53 13.5 11.53H10.5C10.3011 11.53 10.1103 11.451 9.96967 11.3103C9.82902 11.1697 9.75 10.9789 9.75 10.78Z" fill="white"/>
</svg>
