<svg width="148" height="33" viewBox="0 0 148 33" fill="none" xmlns="http://www.w3.org/2000/svg">
<path d="M24.6861 3.66557L16.8823 16.0915L25.7769 28.8944H3.75422V3.66557H24.6861ZM31.3913 0H0V32.56H32.863L21.3516 15.9904L31.3913 0Z" fill="#FFC72C"/>
<path d="M58.2072 22.13L60.1219 20.0101C60.3519 20.5769 60.7613 21.0573 61.2903 21.3812C61.8312 21.7193 62.4618 21.8952 63.104 21.8871C63.7894 21.9241 64.4665 21.7263 65.0186 21.328C65.2505 21.1474 65.4353 20.9156 65.5578 20.6518C65.6803 20.388 65.737 20.0996 65.7234 19.8102C65.7234 19.0631 64.9418 18.3211 63.3786 17.5841C62.8734 17.3488 62.4718 17.154 62.179 17.0048C60.7696 16.2863 59.7928 15.5856 59.2487 14.9026C58.7012 14.2009 58.4143 13.3382 58.4352 12.4563C58.4239 11.8394 58.561 11.2285 58.8354 10.6727C59.1099 10.1169 59.5142 9.63174 60.0156 9.25624C61.0675 8.413 62.4347 7.99138 64.117 7.99138C64.9874 7.97118 65.8512 8.14417 66.6431 8.49732C67.3897 8.86218 68.0344 9.39869 68.5215 10.0607L66.4851 11.9656C66.2731 11.5389 65.9381 11.182 65.5213 10.9385C65.0781 10.7015 64.5781 10.5844 64.073 10.5995C63.4783 10.5742 62.8934 10.7532 62.42 11.1055C62.3956 11.1263 62.3731 11.1492 62.3526 11.1738C61.1936 12.4976 61.837 13.6672 64.2828 14.6825C64.6119 14.8166 64.8658 14.9355 65.042 15.0038C66.4065 15.6143 67.4178 16.3023 68.0759 17.068C68.7178 17.7976 69.0676 18.7295 69.0604 19.6913C69.0604 21.1687 68.5423 22.3492 67.5059 23.2329C66.4696 24.1166 65.0877 24.556 63.3605 24.5509C62.2689 24.5792 61.1849 24.3664 60.1892 23.9286C59.3473 23.5532 58.6522 22.9223 58.2072 22.13Z" fill="white"/>
<path d="M41.6513 24.1284V8.38854H45.0972V15.5173L50.4707 8.38854H54.4504L48.6778 15.5603L56.7355 27.0857H52.5901L45.0972 15.8942V24.1284H41.6513Z" fill="white"/>
<path d="M86.3469 24.1284V8.38854H89.7928V14.7128H96.7883V8.38854H100.234V24.1284H96.7857V17.5512H89.7903V24.1284H86.3469Z" fill="white"/>
<path d="M118.907 16.2914C118.914 17.3868 118.695 18.4725 118.264 19.4839C117.838 20.4808 117.207 21.3815 116.409 22.13C115.591 22.8987 114.629 23.5083 113.577 23.9261C112.543 24.3383 111.436 24.5496 110.318 24.5484C109.333 24.5485 108.356 24.3833 107.429 24.0602C106.491 23.7368 105.615 23.2622 104.838 22.6562C103.85 21.8997 103.052 20.9322 102.506 19.8279C101.963 18.7233 101.685 17.5118 101.695 16.2863C101.687 15.1926 101.905 14.1085 102.335 13.0989C102.763 12.1015 103.396 11.2007 104.196 10.4528C105.006 9.68516 105.962 9.07935 107.009 8.66935C108.056 8.24966 109.176 8.03396 110.308 8.03439C111.432 8.03352 112.546 8.24929 113.585 8.66935C114.631 9.08304 115.586 9.68842 116.399 10.4528C117.198 11.2051 117.831 12.109 118.259 13.109C118.69 14.117 118.91 15.199 118.907 16.2914ZM110.318 21.5481C110.998 21.5684 111.674 21.4448 112.3 21.1859C112.926 20.9269 113.487 20.5388 113.945 20.048C114.905 19.0258 115.417 17.6775 115.373 16.2914C115.411 14.9013 114.893 13.5512 113.93 12.5272C113.477 12.0357 112.921 11.6456 112.299 11.3836C111.677 11.1217 111.005 10.994 110.328 11.0093C109.648 10.9928 108.971 11.1199 108.345 11.3818C107.719 11.6437 107.158 12.0344 106.701 12.5272C105.734 13.5514 105.216 14.9042 105.258 16.2964C105.258 17.8143 105.731 19.0707 106.678 20.0657C107.141 20.5517 107.706 20.9354 108.334 21.1911C108.962 21.4467 109.638 21.5685 110.318 21.5481Z" fill="white"/>
<path d="M137.585 16.2914C137.591 17.387 137.371 18.4727 136.939 19.4839C136.514 20.4813 135.883 21.3821 135.084 22.13C134.267 22.8986 133.306 23.5082 132.255 23.9261C131.22 24.3378 130.113 24.5491 128.996 24.5484C128.01 24.5487 127.032 24.3835 126.104 24.0602C125.167 23.7362 124.291 23.2617 123.513 22.6562C122.525 21.8997 121.727 20.9322 121.182 19.8279C120.64 18.7227 120.364 17.5115 120.373 16.2863C120.365 15.1929 120.582 14.109 121.011 13.0989C121.44 12.0981 122.078 11.1954 122.884 10.4477C123.694 9.68057 124.651 9.07633 125.7 8.66935C126.746 8.24916 127.867 8.03343 128.998 8.03439C130.122 8.03385 131.235 8.24962 132.273 8.66935C133.319 9.08304 134.274 9.68842 135.087 10.4528C135.886 11.2051 136.519 12.109 136.947 13.109C137.376 14.1174 137.593 15.1996 137.585 16.2914ZM128.996 21.5481C129.675 21.5681 130.351 21.4443 130.977 21.1854C131.603 20.9265 132.165 20.5385 132.623 20.048C133.582 19.0254 134.093 17.6772 134.048 16.2914C134.087 14.901 133.57 13.5505 132.605 12.5272C132.152 12.0359 131.597 11.6459 130.976 11.3839C130.354 11.122 129.683 10.9942 129.006 11.0093C128.325 10.9932 127.649 11.1204 127.023 11.3823C126.397 11.6442 125.836 12.0347 125.379 12.5272C124.413 13.5519 123.895 14.9044 123.936 16.2964C123.936 17.8143 124.409 19.0707 125.356 20.0657C125.819 20.5516 126.384 20.9352 127.012 21.1908C127.639 21.4465 128.316 21.5683 128.996 21.5481Z" fill="white"/>
<path d="M139.048 24.1284V8.38854H142.494V21.2699H148V24.1284H139.048Z" fill="white"/>
<path d="M84.1525 19.8634C83.5131 20.4402 82.77 20.8965 81.9605 21.2092C81.1339 21.5188 80.255 21.6741 79.3696 21.667C77.7339 21.667 76.4385 21.1813 75.4833 20.2099C74.5281 19.2385 74.0549 17.9247 74.0635 16.2686C74.0635 14.5821 74.5739 13.233 75.5947 12.2211C76.6155 11.2092 77.9844 10.7075 79.7013 10.7159C80.5077 10.7105 81.3078 10.8547 82.059 11.1409C82.8286 11.4516 83.537 11.8908 84.1525 12.4386V9.02857C83.436 8.69861 82.6856 8.4442 81.9139 8.26965C81.0828 8.08991 80.2339 7.99998 79.3826 8.0015C76.7762 8.0015 74.6473 8.77897 72.996 10.3339C71.3448 11.8888 70.5174 13.8671 70.514 16.2686C70.514 18.6719 71.3379 20.6526 72.9857 22.2109C74.6335 23.7692 76.7459 24.5484 79.323 24.5484C80.1796 24.5524 81.0331 24.4478 81.8621 24.2372C82.6686 24.0276 83.4418 23.7109 84.1602 23.2962L84.1525 19.8634Z" fill="white"/>
</svg>
