<svg width="140" height="26" viewBox="0 0 140 26" fill="none" xmlns="http://www.w3.org/2000/svg">
<path d="M3.80202 18.7799H-0.00598145V8.97991H3.62002C5.45402 8.97991 6.64402 9.88991 6.64402 11.4999C6.64402 12.4099 6.01402 13.1379 5.38402 13.4179C6.35002 13.7679 7.09202 14.5659 7.09202 15.9099C7.09202 17.6879 5.83202 18.7799 3.80202 18.7799ZM1.43602 10.1979V12.9419H3.55002C4.64202 12.9419 5.23002 12.4799 5.23002 11.5699C5.23002 10.6739 4.64202 10.1979 3.53602 10.1979H1.43602ZM1.43602 14.2159V17.4919H3.60602C4.97802 17.4919 5.65002 16.9179 5.65002 15.8539C5.65002 14.7899 4.97802 14.2159 3.60602 14.2159H1.43602Z" fill="white"/>
<path d="M13.4953 11.7239H14.8953L12.4173 18.5279L11.3533 21.6359H10.0513L11.0033 18.8499L8.38527 11.7239H9.78527L11.6333 17.0159L13.4953 11.7239Z" fill="white"/>
<path fill-rule="evenodd" clip-rule="evenodd" d="M66.7777 7.57065C69.4026 7.5736 70.7335 7.62602 71.8414 8.03718C74.6347 9.06626 75.0272 11.178 75.0272 12.6201C75.0272 14.3919 74.4207 16.2724 72.1365 16.9695L75.4936 23.0835H77.5337V25.617C76.7247 25.668 76.2137 25.7169 75.6757 25.7571C75.1386 25.803 74.7088 25.8266 74.3873 25.8266C73.7272 25.8266 73.2335 25.7218 72.9072 25.5084C72.5762 25.3014 72.2819 24.9386 72.0257 24.4149L68.4998 17.5983H66.5866V21.608H62.9177V10.3211H61.3612V7.5705L66.7777 7.57065ZM33.3871 7.50731C34.2134 7.50731 34.775 7.67447 35.0754 8.00678C35.3755 8.34181 35.5167 8.88998 35.5167 9.65281V18.802H37.1523V21.2899C37.1523 21.2899 35.1678 21.5794 33.9866 21.5794C33.351 21.5794 32.8783 21.4814 32.5604 21.2899C32.2446 21.1011 32.0329 20.7955 31.9265 20.3766C31.3455 20.8342 29.8568 21.8727 28.0378 21.8727C26.855 21.8727 25.5726 21.5141 24.6132 20.5479C24.2483 20.177 23.6362 19.1495 23.6362 17.1402V10.2824H22V7.76593C22.5114 7.68704 23.0733 7.62738 23.692 7.57798C24.3033 7.52842 24.7974 7.50731 25.1679 7.50731C25.9949 7.50731 26.5578 7.67447 26.8592 8.00678C27.1567 8.34181 27.3061 8.88998 27.3061 9.65281V16.5968C27.3061 17.2265 27.41 17.7394 27.7285 17.997C28.5266 18.6475 30.188 18.4043 30.6192 18.3547C31.0516 18.3091 31.4619 18.2389 31.8482 18.1416V10.2824H30.2174V7.76593C30.7306 7.68704 31.2925 7.62738 31.9078 7.57798C32.5234 7.52842 33.0182 7.50731 33.3871 7.50731ZM57.0284 7.50731C57.8748 7.50731 58.4418 7.67447 58.7434 8.00678C59.0451 8.34181 59.1918 8.89072 59.1918 9.65281V21.6089H55.5229V10.2831H53.7813V7.79186C54.0417 7.7542 54.3247 7.72234 54.6273 7.69154C54.6273 7.69154 56.2643 7.50731 57.0284 7.50731ZM47.4877 7.22044C50.4685 7.22044 51.473 9.60418 51.473 11.9435V18.802H53.0726V21.2899C53.0726 21.2899 51.6604 21.4763 51.3814 21.5075C51.1002 21.5334 50.8256 21.5534 50.5646 21.5651C50.3247 21.5717 50.1319 21.5751 49.9669 21.5794H49.9049C49.8676 21.5794 49.8346 21.5736 49.7971 21.5736C49.7302 21.5717 49.665 21.5711 49.5995 21.5651C49.3473 21.5519 49.1255 21.5184 48.9342 21.4678C48.9165 21.4644 48.905 21.4603 48.8899 21.4552C48.7346 21.414 48.4352 21.2967 48.2513 21.0901C47.949 20.7507 47.8056 20.1929 47.8056 19.4282V12.4866C47.8056 11.8395 47.6629 11.3695 47.3799 11.0843C47.2045 10.9128 46.9754 10.7926 46.6961 10.7414C45.0421 10.4345 43.5803 10.8473 43.2101 10.9439V21.4612H39.5385V10.2824H37.7197V7.79133C38.2299 7.69696 39.9658 7.50731 41.0191 7.50731C41.6705 7.50731 42.1596 7.60234 42.4869 7.79133C42.8106 7.9827 43.0346 8.28039 43.1563 8.68075C44.697 7.32042 46.714 7.22044 47.4877 7.22044ZM68.6118 10.2438H66.5866V14.9845H68.7558C70.6481 14.9845 71.365 13.6825 71.365 12.5688C71.365 11.5064 71.0747 10.2438 68.6118 10.2438ZM56.7909 0.799194C57.4026 0.799194 57.8698 0.944383 58.1741 1.22804C58.4668 1.50855 58.6175 1.99034 58.6175 2.66518V3.0469C58.6175 3.72261 58.4706 4.19856 58.1741 4.46893C57.8698 4.74319 57.4049 4.88356 56.7909 4.88356H56.5979C55.9713 4.88356 55.4993 4.74608 55.207 4.47076C54.9182 4.20121 54.7697 3.72174 54.7697 3.0469V2.66518C54.7697 1.99366 54.9182 1.50855 55.207 1.22804C55.5053 0.943429 55.9735 0.799194 56.5979 0.799194H56.7909Z" fill="white"/>
<path d="M81.2314 13.0118H84.5105V12.2965H81.9978V7.56935H81.2314V13.0118ZM88.8453 13.0118H89.641L87.6148 7.56935H86.9073L84.8809 13.0118H85.6695L86.163 11.6278H88.3516L88.8453 13.0118ZM86.4211 10.9203L87.2611 8.58008L88.101 10.9203H86.4211ZM94.2365 13.0739C95.4227 13.0739 96.2186 12.3509 96.2186 11.1069V7.56935H95.4818V11.1302C95.4818 11.9077 94.9808 12.3509 94.2365 12.3509C93.4997 12.3509 92.9985 11.9077 92.9985 11.1302V7.56935H92.2616V11.1069C92.2616 12.3509 93.0575 13.0739 94.2365 13.0739ZM97.3924 13.0118H98.1588V8.82888L100.649 13.0118H101.497V7.56935H100.73V11.76L98.2472 7.56935H97.3924V13.0118ZM102.766 13.0118H103.532V7.56935H102.766V13.0118ZM106.252 13.0118H107.011L108.934 7.56935H108.16L106.627 12.0399L105.102 7.56935H104.329L106.252 13.0118ZM109.727 13.0118H113.117V12.2965H110.494V10.5627H112.549V9.84738H110.494V8.28463H113.036V7.56935H109.727V13.0118ZM117.091 10.4305C117.547 10.1895 117.85 9.78519 117.85 9.20206C117.85 8.23022 117.216 7.56935 116.177 7.56935H114.158V13.0118H114.924V10.8659H116.214C116.656 10.8659 116.958 11.208 116.995 11.69L117.098 13.0118H117.842L117.739 11.6201C117.71 11.0914 117.466 10.6638 117.091 10.4305ZM114.924 8.26909H116.155C116.825 8.26909 117.083 8.70448 117.083 9.20206C117.083 9.69189 116.825 10.1506 116.155 10.1506H114.924V8.26909ZM120.751 13.0739C121.856 13.0739 122.652 12.4908 122.652 11.4957C122.652 9.41977 119.712 10.2983 119.712 8.9766C119.712 8.51787 120.087 8.22244 120.706 8.22244C121.34 8.22244 121.753 8.58786 121.804 9.14765H122.549C122.482 8.15247 121.76 7.50716 120.706 7.50716C119.667 7.50716 118.945 8.10582 118.945 8.9766C118.945 10.9825 121.871 10.1972 121.871 11.5034C121.871 12.0943 121.399 12.3587 120.751 12.3587C120.021 12.3587 119.586 11.9077 119.527 11.208H118.783C118.842 12.3353 119.586 13.0739 120.751 13.0739ZM123.645 13.0118H124.411V7.56935H123.645V13.0118ZM125.68 13.0118H127.264C128.701 13.0118 129.865 12.0632 129.865 10.2906C129.865 8.51787 128.701 7.56935 127.264 7.56935H125.68V13.0118ZM126.446 12.2965V8.28463H127.22C128.177 8.28463 129.076 8.8522 129.076 10.2906C129.076 11.7289 128.177 12.2965 127.22 12.2965H126.446ZM134.2 13.0118H134.996L132.97 7.56935H132.262L130.236 13.0118H131.024L131.518 11.6278H133.706L134.2 13.0118ZM131.776 10.9203L132.616 8.58008L133.456 10.9203H131.776ZM135.764 13.0118H137.348C138.785 13.0118 139.949 12.0632 139.949 10.2906C139.949 8.51787 138.785 7.56935 137.348 7.56935H135.764V13.0118ZM136.53 12.2965V8.28463H137.304C138.262 8.28463 139.161 8.8522 139.161 10.2906C139.161 11.7289 138.262 12.2965 137.304 12.2965H136.53ZM81.2314 21.5135H84.6209V20.7981H81.9978V19.0643H84.0536V18.349H81.9978V16.7863H84.5399V16.071H81.2314V21.5135ZM85.6621 21.5135H86.4283V17.3305L88.9189 21.5135H89.7663V16.071H89V20.2616L86.5168 16.071H85.6621V21.5135ZM92.9546 21.5135H93.7208V16.071H92.9546V21.5135ZM94.9891 21.5135H95.7553V17.3305L98.2458 21.5135H99.0933V16.071H98.327V20.2616L95.8437 16.071H94.9891V21.5135ZM101.534 21.5135H102.3V16.7863H103.914V16.071H99.9201V16.7863H101.534V21.5135ZM104.685 21.5135H108.075V20.7981H105.451V19.0643H107.507V18.349H105.451V16.7863H107.993V16.071H104.685V21.5135ZM112.048 18.9321C112.505 18.6911 112.807 18.2868 112.807 17.7037C112.807 16.7319 112.174 16.071 111.135 16.071H109.116V21.5135H109.882V19.3675H111.171C111.614 19.3675 111.916 19.7096 111.953 20.1917L112.056 21.5135H112.8L112.697 20.1217C112.667 19.593 112.424 19.1654 112.048 18.9321ZM109.882 16.7707H111.112C111.783 16.7707 112.041 17.2061 112.041 17.7037C112.041 18.1935 111.783 18.6523 111.112 18.6523H109.882V16.7707ZM114.151 21.5135H114.917V17.3305L117.408 21.5135H118.255V16.071H117.489V20.2616L115.005 16.071H114.151V21.5135ZM119.524 21.5135H122.914V20.7981H120.29V19.0643H122.346V18.349H120.29V16.7863H122.832V16.071H119.524V21.5135ZM125.126 21.5135H125.893V16.7863H127.506V16.071H123.512V16.7863H125.126V21.5135Z" fill="white"/>
</svg>
